<svg width="116" height="51" viewBox="0 0 116 51" fill="none" xmlns="http://www.w3.org/2000/svg">
<path d="M14.0742 3.62109V0.9375H0.316406V3.62109H5.50781V18H8.8125V3.62109H14.0742ZM23.9883 18H27.293V17.8008C27.1289 17.4805 27.0039 17.0977 26.918 16.6523C26.832 16.207 26.7891 15.6445 26.7891 14.9648V9.52734C26.7891 8.79297 26.6523 8.14844 26.3789 7.59375C26.1055 7.03125 25.7266 6.56641 25.2422 6.19922C24.7578 5.83203 24.1836 5.55469 23.5195 5.36719C22.8633 5.17969 22.1523 5.08594 21.3867 5.08594C20.5352 5.08594 19.7773 5.19531 19.1133 5.41406C18.457 5.625 17.9023 5.91406 17.4492 6.28125C16.9883 6.64844 16.6367 7.07422 16.3945 7.55859C16.1602 8.04297 16.043 8.55469 16.043 9.09375H19.3008C19.3008 8.86719 19.332 8.66016 19.3945 8.47266C19.4648 8.28516 19.5703 8.125 19.7109 7.99219C19.8672 7.84375 20.0703 7.73047 20.3203 7.65234C20.5703 7.56641 20.8672 7.52344 21.2109 7.52344C21.6016 7.52344 21.9414 7.57422 22.2305 7.67578C22.5273 7.76953 22.7734 7.90625 22.9688 8.08594C23.1562 8.25781 23.2969 8.46484 23.3906 8.70703C23.4844 8.94141 23.5312 9.20703 23.5312 9.50391V10.2539H21.7148C20.7773 10.2539 19.9453 10.3398 19.2188 10.5117C18.5 10.6758 17.8945 10.918 17.4023 11.2383C16.8555 11.5898 16.4453 12.0391 16.1719 12.5859C15.8984 13.125 15.7617 13.7461 15.7617 14.4492C15.7617 14.9961 15.8711 15.5039 16.0898 15.9727C16.3086 16.4336 16.6133 16.832 17.0039 17.168C17.3945 17.5039 17.8594 17.7656 18.3984 17.9531C18.9453 18.1406 19.543 18.2344 20.1914 18.2344C20.5898 18.2344 20.9609 18.1953 21.3047 18.1172C21.6484 18.0469 21.9648 17.9453 22.2539 17.8125C22.5352 17.6875 22.793 17.5391 23.0273 17.3672C23.2617 17.1953 23.4688 17.0117 23.6484 16.8164C23.6875 17.043 23.7344 17.2578 23.7891 17.4609C23.8438 17.6641 23.9102 17.8438 23.9883 18ZM20.8828 15.7148C20.5781 15.7148 20.3086 15.6797 20.0742 15.6094C19.8477 15.5312 19.6562 15.4297 19.5 15.3047C19.3438 15.1719 19.2227 15.0117 19.1367 14.8242C19.0586 14.6289 19.0195 14.418 19.0195 14.1914C19.0195 13.9023 19.0742 13.6367 19.1836 13.3945C19.293 13.1445 19.4609 12.9297 19.6875 12.75C19.9141 12.5781 20.207 12.4453 20.5664 12.3516C20.9258 12.25 21.3594 12.1992 21.8672 12.1992H23.5312V14.3789C23.4375 14.543 23.3086 14.707 23.1445 14.8711C22.9805 15.0273 22.7852 15.168 22.5586 15.293C22.332 15.418 22.0781 15.5195 21.7969 15.5977C21.5156 15.6758 21.2109 15.7148 20.8828 15.7148ZM36.2812 9.28125L33.5391 5.32031H30.0352L34.2773 11.543L29.8711 18H33.3984L36.293 13.8516L39.2109 18H42.7266L38.3203 11.543L42.5742 5.32031H39.0703L36.2812 9.28125ZM44.4492 11.543V11.7891C44.4492 12.7188 44.582 13.5781 44.8477 14.3672C45.1133 15.1484 45.5039 15.8281 46.0195 16.4062C46.5273 16.9844 47.1523 17.4375 47.8945 17.7656C48.6445 18.0859 49.4961 18.2461 50.4492 18.2461C51.3945 18.2461 52.2383 18.0859 52.9805 17.7656C53.7227 17.4375 54.3477 16.9844 54.8555 16.4062C55.3633 15.8281 55.75 15.1484 56.0156 14.3672C56.2812 13.5781 56.4141 12.7188 56.4141 11.7891V11.543C56.4141 10.6211 56.2812 9.76953 56.0156 8.98828C55.75 8.19922 55.3633 7.51562 54.8555 6.9375C54.3398 6.35938 53.7109 5.90625 52.9688 5.57812C52.2266 5.25 51.3789 5.08594 50.4258 5.08594C49.4727 5.08594 48.625 5.25 47.8828 5.57812C47.1484 5.90625 46.5273 6.35938 46.0195 6.9375C45.5039 7.51562 45.1133 8.19922 44.8477 8.98828C44.582 9.76953 44.4492 10.6211 44.4492 11.543ZM47.707 11.7891V11.543C47.707 11.0273 47.7578 10.5391 47.8594 10.0781C47.9609 9.61719 48.1211 9.21094 48.3398 8.85938C48.5586 8.50781 48.8398 8.23047 49.1836 8.02734C49.5273 7.82422 49.9414 7.72266 50.4258 7.72266C50.918 7.72266 51.3359 7.82422 51.6797 8.02734C52.0234 8.23047 52.3047 8.50781 52.5234 8.85938C52.7344 9.21094 52.8906 9.61719 52.9922 10.0781C53.0938 10.5391 53.1445 11.0273 53.1445 11.543V11.7891C53.1445 12.3203 53.0938 12.8203 52.9922 13.2891C52.8906 13.75 52.7344 14.1523 52.5234 14.4961C52.3047 14.8477 52.0234 15.125 51.6797 15.3281C51.3359 15.5312 50.9258 15.6328 50.4492 15.6328C49.957 15.6328 49.5352 15.5312 49.1836 15.3281C48.8398 15.125 48.5586 14.8477 48.3398 14.4961C48.1211 14.1523 47.9609 13.75 47.8594 13.2891C47.7578 12.8203 47.707 12.3203 47.707 11.7891ZM59.3086 18H62.5781V8.98828C62.6875 8.81641 62.8086 8.66016 62.9414 8.51953C63.0742 8.37891 63.2227 8.25781 63.3867 8.15625C63.5898 8.01562 63.8203 7.91016 64.0781 7.83984C64.3438 7.76953 64.6328 7.73438 64.9453 7.73438C65.3203 7.73438 65.6562 7.77344 65.9531 7.85156C66.25 7.92188 66.5039 8.05078 66.7148 8.23828C66.9258 8.42578 67.0859 8.68359 67.1953 9.01172C67.3125 9.33203 67.3711 9.74219 67.3711 10.2422V18H70.6289V10.1953C70.6289 9.27344 70.5195 8.49219 70.3008 7.85156C70.0898 7.20312 69.793 6.67188 69.4102 6.25781C69.0195 5.85156 68.5586 5.55469 68.0273 5.36719C67.4961 5.17969 66.9102 5.08594 66.2695 5.08594C65.7695 5.08594 65.2969 5.15625 64.8516 5.29688C64.4062 5.4375 63.9961 5.64062 63.6211 5.90625C63.4023 6.0625 63.1953 6.23828 63 6.43359C62.8047 6.62891 62.625 6.84375 62.4609 7.07812L62.2617 5.32031H59.3086V18ZM73.2773 11.543V11.7891C73.2773 12.7188 73.4102 13.5781 73.6758 14.3672C73.9414 15.1484 74.332 15.8281 74.8477 16.4062C75.3555 16.9844 75.9805 17.4375 76.7227 17.7656C77.4727 18.0859 78.3242 18.2461 79.2773 18.2461C80.2227 18.2461 81.0664 18.0859 81.8086 17.7656C82.5508 17.4375 83.1758 16.9844 83.6836 16.4062C84.1914 15.8281 84.5781 15.1484 84.8438 14.3672C85.1094 13.5781 85.2422 12.7188 85.2422 11.7891V11.543C85.2422 10.6211 85.1094 9.76953 84.8438 8.98828C84.5781 8.19922 84.1914 7.51562 83.6836 6.9375C83.168 6.35938 82.5391 5.90625 81.7969 5.57812C81.0547 5.25 80.207 5.08594 79.2539 5.08594C78.3008 5.08594 77.4531 5.25 76.7109 5.57812C75.9766 5.90625 75.3555 6.35938 74.8477 6.9375C74.332 7.51562 73.9414 8.19922 73.6758 8.98828C73.4102 9.76953 73.2773 10.6211 73.2773 11.543ZM76.5352 11.7891V11.543C76.5352 11.0273 76.5859 10.5391 76.6875 10.0781C76.7891 9.61719 76.9492 9.21094 77.168 8.85938C77.3867 8.50781 77.668 8.23047 78.0117 8.02734C78.3555 7.82422 78.7695 7.72266 79.2539 7.72266C79.7461 7.72266 80.1641 7.82422 80.5078 8.02734C80.8516 8.23047 81.1328 8.50781 81.3516 8.85938C81.5625 9.21094 81.7188 9.61719 81.8203 10.0781C81.9219 10.5391 81.9727 11.0273 81.9727 11.543V11.7891C81.9727 12.3203 81.9219 12.8203 81.8203 13.2891C81.7188 13.75 81.5625 14.1523 81.3516 14.4961C81.1328 14.8477 80.8516 15.125 80.5078 15.3281C80.1641 15.5312 79.7539 15.6328 79.2773 15.6328C78.7852 15.6328 78.3633 15.5312 78.0117 15.3281C77.668 15.125 77.3867 14.8477 77.168 14.4961C76.9492 14.1523 76.7891 13.75 76.6875 13.2891C76.5859 12.8203 76.5352 12.3203 76.5352 11.7891ZM90.1641 5.32031H87.3633V18H90.3281V8.50781C90.3672 8.40625 90.4102 8.3125 90.457 8.22656C90.5039 8.14062 90.5586 8.06641 90.6211 8.00391C90.707 7.91797 90.8047 7.85156 90.9141 7.80469C91.0234 7.75781 91.1484 7.73438 91.2891 7.73438C91.4141 7.73438 91.5312 7.75391 91.6406 7.79297C91.75 7.82422 91.8477 7.88281 91.9336 7.96875C92.0117 8.05469 92.0742 8.17578 92.1211 8.33203C92.168 8.48828 92.1914 8.6875 92.1914 8.92969V18H95.0625V8.64844C95.0625 8.55469 95.0625 8.48047 95.0625 8.42578C95.0625 8.37109 95.0625 8.33594 95.0625 8.32031C95.1016 8.23438 95.1484 8.16016 95.2031 8.09766C95.2578 8.02734 95.3203 7.96484 95.3906 7.91016C95.4766 7.85547 95.5664 7.8125 95.6602 7.78125C95.7617 7.75 95.875 7.73438 96 7.73438C96.1172 7.73438 96.2305 7.75391 96.3398 7.79297C96.457 7.82422 96.5586 7.88281 96.6445 7.96875C96.7305 8.0625 96.7969 8.1875 96.8438 8.34375C96.8984 8.5 96.9258 8.69922 96.9258 8.94141V18H99.8906V8.95312C99.8906 8.25 99.8203 7.65625 99.6797 7.17188C99.5469 6.67969 99.3594 6.27734 99.1172 5.96484C98.8672 5.66016 98.5742 5.4375 98.2383 5.29688C97.9102 5.15625 97.5547 5.08594 97.1719 5.08594C96.8672 5.08594 96.5859 5.125 96.3281 5.20312C96.0703 5.28125 95.8398 5.39062 95.6367 5.53125C95.4727 5.64062 95.3203 5.77344 95.1797 5.92969C95.0469 6.07812 94.9258 6.24609 94.8164 6.43359C94.7461 6.23828 94.6602 6.06641 94.5586 5.91797C94.4648 5.76172 94.3516 5.62891 94.2188 5.51953C94.0469 5.37109 93.8438 5.26172 93.6094 5.19141C93.375 5.12109 93.1094 5.08594 92.8125 5.08594C92.2031 5.08594 91.6836 5.24609 91.2539 5.56641C90.832 5.87891 90.5 6.30859 90.2578 6.85547L90.1641 5.32031ZM104.555 23.1211C105.211 23.1211 105.777 23.0117 106.254 22.793C106.738 22.5742 107.148 22.3047 107.484 21.9844C107.82 21.6641 108.098 21.3164 108.316 20.9414C108.543 20.5664 108.727 20.2188 108.867 19.8984L115.301 5.32031H111.703L108.809 12.7734L108.328 14.0391L107.977 12.75L105.07 5.32031H101.508L106.875 17.4609L106.125 18.8555C106.031 19.0273 105.949 19.1602 105.879 19.2539C105.816 19.3477 105.715 19.4883 105.574 19.6758C105.434 19.8633 105.262 20.0352 105.059 20.1914C104.863 20.3555 104.637 20.4375 104.379 20.4375C104.254 20.4375 104.086 20.4297 103.875 20.4141C103.672 20.4062 103.504 20.4023 103.371 20.4023L102.973 22.8867C103.254 22.9648 103.508 23.0234 103.734 23.0625C103.969 23.1016 104.242 23.1211 104.555 23.1211Z" fill="#00D475"/>
<path d="M14.0742 35.6211V32.9375H0.316406V35.6211H5.50781V50H8.8125V35.6211H14.0742ZM24.3398 50H27.293V37.3203H24.0234V46.2148C23.9219 46.418 23.8008 46.6016 23.6602 46.7656C23.5195 46.9297 23.3594 47.0703 23.1797 47.1875C22.9688 47.3203 22.7227 47.4219 22.4414 47.4922C22.168 47.5625 21.8594 47.5977 21.5156 47.5977C21.1328 47.5977 20.8086 47.5508 20.543 47.457C20.2773 47.3633 20.0625 47.207 19.8984 46.9883C19.7344 46.7773 19.6133 46.4961 19.5352 46.1445C19.4648 45.793 19.4297 45.3594 19.4297 44.8438V37.3203H16.1719V44.8203C16.1719 45.7812 16.2773 46.6055 16.4883 47.293C16.707 47.9727 17.0117 48.5312 17.4023 48.9688C17.793 49.4141 18.2617 49.7383 18.8086 49.9414C19.3555 50.1445 19.957 50.2461 20.6133 50.2461C21.332 50.2461 21.9922 50.0664 22.5938 49.707C23.2031 49.3477 23.7227 48.8516 24.1523 48.2188L24.3398 50ZM36.457 34.2148H33.1992V37.3203H30.3047V39.7227H33.1992V45.4883C33.1992 46.3242 33.3086 47.043 33.5273 47.6445C33.7461 48.2383 34.0586 48.7266 34.4648 49.1094C34.8633 49.5 35.3438 49.7891 35.9062 49.9766C36.4766 50.1562 37.1094 50.2461 37.8047 50.2461C38.1641 50.2461 38.5273 50.2266 38.8945 50.1875C39.2695 50.1562 39.6289 50.1094 39.9727 50.0469C40.3164 49.9844 40.6406 49.9062 40.9453 49.8125C41.25 49.7109 41.5156 49.5938 41.7422 49.4609L41.4258 47.2227C41.2773 47.2617 41.0977 47.3008 40.8867 47.3398C40.6836 47.3789 40.4648 47.4141 40.2305 47.4453C39.9883 47.4844 39.7344 47.5156 39.4688 47.5391C39.2109 47.5625 38.957 47.5742 38.707 47.5742C38.3633 47.5742 38.0508 47.5352 37.7695 47.457C37.4961 47.3789 37.2617 47.2461 37.0664 47.0586C36.8711 46.8789 36.7188 46.6367 36.6094 46.332C36.5078 46.0195 36.457 45.6328 36.457 45.1719V39.7227H41.1914V37.3203H36.457V34.2148ZM43.9692 43.543V43.7891C43.9692 44.7188 44.102 45.5781 44.3677 46.3672C44.6333 47.1484 45.0239 47.8281 45.5395 48.4062C46.0473 48.9844 46.6723 49.4375 47.4145 49.7656C48.1645 50.0859 49.0161 50.2461 49.9692 50.2461C50.9145 50.2461 51.7583 50.0859 52.5005 49.7656C53.2427 49.4375 53.8677 48.9844 54.3755 48.4062C54.8833 47.8281 55.27 47.1484 55.5356 46.3672C55.8013 45.5781 55.9341 44.7188 55.9341 43.7891V43.543C55.9341 42.6211 55.8013 41.7695 55.5356 40.9883C55.27 40.1992 54.8833 39.5156 54.3755 38.9375C53.8598 38.3594 53.2309 37.9062 52.4888 37.5781C51.7466 37.25 50.8989 37.0859 49.9458 37.0859C48.9927 37.0859 48.145 37.25 47.4028 37.5781C46.6684 37.9062 46.0473 38.3594 45.5395 38.9375C45.0239 39.5156 44.6333 40.1992 44.3677 40.9883C44.102 41.7695 43.9692 42.6211 43.9692 43.543ZM47.227 43.7891V43.543C47.227 43.0273 47.2778 42.5391 47.3794 42.0781C47.4809 41.6172 47.6411 41.2109 47.8598 40.8594C48.0786 40.5078 48.3598 40.2305 48.7036 40.0273C49.0473 39.8242 49.4614 39.7227 49.9458 39.7227C50.438 39.7227 50.8559 39.8242 51.1997 40.0273C51.5434 40.2305 51.8247 40.5078 52.0434 40.8594C52.2544 41.2109 52.4106 41.6172 52.5122 42.0781C52.6138 42.5391 52.6645 43.0273 52.6645 43.543V43.7891C52.6645 44.3203 52.6138 44.8203 52.5122 45.2891C52.4106 45.75 52.2544 46.1523 52.0434 46.4961C51.8247 46.8477 51.5434 47.125 51.1997 47.3281C50.8559 47.5312 50.4458 47.6328 49.9692 47.6328C49.477 47.6328 49.0552 47.5312 48.7036 47.3281C48.3598 47.125 48.0786 46.8477 47.8598 46.4961C47.6411 46.1523 47.4809 45.75 47.3794 45.2891C47.2778 44.8203 47.227 44.3203 47.227 43.7891ZM67.9341 37.0859C67.0825 37.0859 66.2973 37.293 65.5786 37.707C64.8598 38.1133 64.2427 38.6758 63.727 39.3945L63.7036 39.1133L63.5747 37.3203H60.5395V50H63.7973V42.3828C63.9458 42.0234 64.1333 41.7109 64.3598 41.4453C64.5864 41.1797 64.8598 40.9609 65.1802 40.7891C65.4458 40.6406 65.7466 40.5312 66.0825 40.4609C66.4263 40.3828 66.8091 40.3438 67.2309 40.3438C67.6372 40.3438 68.063 40.3711 68.5083 40.4258C68.9614 40.4727 69.4028 40.5469 69.8325 40.6484L70.313 37.4023C70.0552 37.3242 69.7153 37.2539 69.2934 37.1914C68.8794 37.1211 68.4263 37.0859 67.9341 37.0859Z" fill="#B1B1B1"/>
</svg>
